<svg xmlns="http://www.w3.org/2000/svg" viewBox="0 0 512 512" xml:space="preserve">
	<style type="text/css">
		.st0 {
			fill: #1A9BB3;
		}

		.st1 {
			fill: #31508F;
		}

		.st2 {
			fill: #3B67E0;
		}

		.st3 {
			fill: #231F20;
		}
	</style>
	<path class="st0" d="M21.1,171.6L140.6,62.1c13.5-12.3,31.8-19.3,50.9-19.3v0.1h129c19.1,0,37.4,6.9,50.9,19.3l119.4,109.4
	c1.8,1.7,3.6,3.5,5.2,5.3v-2.3c0-14.8-5.9-28.9-16.4-39.4L360.2,16.3C349.7,5.9,335.5,0,320.6,0H191.5c-14.9,0-29.1,5.9-39.6,16.3
	l-119.5,119C21.9,145.7,16,159.9,16,174.7v2.1C17.6,175,19.3,173.3,21.1,171.6z" />
	<path class="st1" d="M496,176.9v126.2c0,14.8-5.9,29-16.4,39.4L360.1,461.6c-10.5,10.5-24.7,16.3-39.6,16.3h-129
	c-14.9,0-29.1-5.9-39.6-16.3L32.4,342.7C21.9,332.2,16,318,16,303.2V176.8C5.7,188.5,0,203.1,0,218.3v118.3
	c0,17.5,7.6,34.3,21.1,46.7l119.4,109.5c13.5,12.4,31.8,19.3,50.9,19.3h129.1c19.1,0,37.4-7,50.9-19.3l119.4-109.5
	c13.5-12.4,21.1-29.2,21.1-46.7V218.3C511.9,203.2,506.2,188.6,496,176.9z" />
	<path class="st2" d="M64,305.2c-1.1-11.9-0.5-22.1,2-30.4s7.9-16.7,16.3-25.1c9.4-9.4,19.5-14,30.2-13.9s20.8,4.9,30.2,14.3
	c5.5,5.5,10.2,11.6,13.9,18.1c3.8,6.5,6.8,14.4,9,23.6s3.9,20.3,5,33.5s1.7,29,1.9,47.6s0,40.5-0.5,65.8l19.2,19.2l106.2-106.3
	l-17.3-23.2l-81.3,81.3c1.2-27.3,1.8-50.9,1.5-70.8s-1.5-37.1-3.7-51.4s-5.8-26.6-10.6-36.9c-4.8-10.2-11.2-19.3-19.1-27.2
	c-9.2-9.2-19.7-15.5-31.4-18.7s-23.7-2.9-36.1,0.8c-12.4,3.8-24.3,11.3-35.8,22.8c-12.2,12.2-20.4,24.8-24.7,37.9
	c-4.3,13-5.6,27.3-3.9,42.7L64,305.2z" />
	<polygon class="st2" points="301.5,264.1 374.4,191.1 416.3,232.9 439.8,209.4 398,167.6 419.9,145.6 400.7,126.4 378.8,148.4 
	330.3,99.9 310,120.2 355.4,171.7 308,219.1 244.6,64.1 215.7,76.2 284.2,246.8 " />
	<path class="st3" d="M421.4,235.4c-0.7-2.9-2.8-5.1-5.7-5.9c-2.9-0.8-5.9,0.1-7.9,2.3l-59.9,65.5c-4.7,5.2-6.6,12.3-5,19.2
	l10.5,45.3l-8.3,31c-2.4,8.9,2.8,18,11.7,20.4l17.9,4.8c8.9,2.4,18-2.8,20.4-11.7l8.3-31l31.8-34.1c4.8-5.2,6.8-12.3,5.3-19.2
	L421.4,235.4z M390.5,405.1c-1.8,6.4-8.3,10.1-14.5,8.4l-17.9-4.8c-6.3-1.7-10.1-8.2-8.4-14.5l7.9-29.3l40.8,10.9L390.5,405.1z
	 M431.7,338l-31.2,33.4L357.9,360l-10.3-44.5c-1.3-5.4,0.2-10.9,3.9-15l59.8-65.5c0.2-0.2,0.4-0.4,0.6-0.5l-15.7,58.6
	c-3.5-0.4-7.1,0.2-10.3,2.1c-8,4.6-10.7,14.8-6.1,22.7c4.6,8,14.8,10.7,22.7,6.1c8-4.6,10.7-14.8,6.1-22.7c-1.8-3.3-4.6-5.6-7.8-7
	l15.7-58.6c0.1,0.2,0.2,0.4,0.2,0.7l19.1,86.7C437,328.4,435.4,334,431.7,338z M404.4,303.7c3.3,5.7,1.4,12.9-4.3,16.2
	c-5.7,3.3-12.9,1.4-16.2-4.3c-3.3-5.7-1.4-12.9,4.3-16.2S401.1,298,404.4,303.7z" />
</svg>